<svg width="342" height="103" viewBox="0 0 342 103" fill="none" xmlns="http://www.w3.org/2000/svg">
<path d="M36.126 72L21.846 45.48H19.704V72H-0.288V0.0899956H31.23C37.01 0.0899956 41.906 1.11 45.918 3.15C49.93 5.122 52.956 7.876 54.996 11.412C57.036 14.88 58.056 18.79 58.056 23.142C58.056 28.038 56.696 32.356 53.976 36.096C51.324 39.768 47.414 42.386 42.246 43.95L58.464 72H36.126ZM19.704 31.812H29.598C32.318 31.812 34.358 31.166 35.718 29.874C37.078 28.582 37.758 26.712 37.758 24.264C37.758 21.952 37.044 20.15 35.616 18.858C34.256 17.498 32.25 16.818 29.598 16.818H19.704V31.812Z" fill="#232020"/>
<ellipse cx="29.5" cy="24.5" rx="25.5" ry="24.5" fill="#232020"/>
<path d="M59.464 54.859C59.464 51.321 60.0943 48.2303 61.355 45.587C62.6563 42.9437 64.405 40.9103 66.601 39.487C68.8377 38.0637 71.3183 37.352 74.043 37.352C76.4017 37.352 78.435 37.8197 80.143 38.755C81.851 39.6903 83.1727 40.951 84.108 42.537V37.779H96.064V72H84.108V67.242C83.1727 68.828 81.8307 70.0887 80.082 71.024C78.374 71.9593 76.361 72.427 74.043 72.427C71.3183 72.427 68.8377 71.7153 66.601 70.292C64.405 68.8687 62.6563 66.8353 61.355 64.192C60.0943 61.508 59.464 58.397 59.464 54.859ZM84.108 54.859C84.108 52.663 83.498 50.9347 82.278 49.674C81.0987 48.4133 79.6347 47.783 77.886 47.783C76.0967 47.783 74.6123 48.4133 73.433 49.674C72.2537 50.894 71.664 52.6223 71.664 54.859C71.664 57.055 72.2537 58.8037 73.433 60.105C74.6123 61.3657 76.0967 61.996 77.886 61.996C79.6347 61.996 81.0987 61.3657 82.278 60.105C83.498 58.8443 84.108 57.0957 84.108 54.859ZM108.306 34.607C106.191 34.607 104.483 34.0377 103.182 32.899C101.921 31.7197 101.291 30.2557 101.291 28.507C101.291 26.7177 101.921 25.2333 103.182 24.054C104.483 22.8747 106.191 22.285 108.306 22.285C110.38 22.285 112.047 22.8747 113.308 24.054C114.609 25.2333 115.26 26.7177 115.26 28.507C115.26 30.2557 114.609 31.7197 113.308 32.899C112.047 34.0377 110.38 34.607 108.306 34.607ZM114.223 37.779V72H102.267V37.779H114.223ZM140.613 61.813V72H135.428C126.684 72 122.313 67.669 122.313 59.007V47.722H118.104V37.779H122.313V29.483H134.33V37.779H140.552V47.722H134.33V59.19C134.33 60.1253 134.533 60.7963 134.94 61.203C135.387 61.6097 136.119 61.813 137.136 61.813H140.613ZM167.995 37.474C171.899 37.474 174.99 38.7957 177.267 41.439C179.585 44.0417 180.744 47.5797 180.744 52.053V72H168.788V53.639C168.788 51.687 168.28 50.162 167.263 49.064C166.247 47.9253 164.884 47.356 163.176 47.356C161.387 47.356 159.984 47.9253 158.967 49.064C157.951 50.162 157.442 51.687 157.442 53.639V72H145.486V26.86H157.442V42.659C158.5 41.1137 159.923 39.8733 161.712 38.938C163.542 37.962 165.637 37.474 167.995 37.474ZM184.743 54.859C184.743 51.321 185.373 48.2303 186.634 45.587C187.935 42.9437 189.684 40.9103 191.88 39.487C194.116 38.0637 196.597 37.352 199.322 37.352C201.68 37.352 203.714 37.8197 205.422 38.755C207.13 39.6903 208.451 40.951 209.387 42.537V37.779H221.343V72H209.387V67.242C208.451 68.828 207.109 70.0887 205.361 71.024C203.653 71.9593 201.64 72.427 199.322 72.427C196.597 72.427 194.116 71.7153 191.88 70.292C189.684 68.8687 187.935 66.8353 186.634 64.192C185.373 61.508 184.743 58.397 184.743 54.859ZM209.387 54.859C209.387 52.663 208.777 50.9347 207.557 49.674C206.377 48.4133 204.913 47.783 203.165 47.783C201.375 47.783 199.891 48.4133 198.712 49.674C197.532 50.894 196.943 52.6223 196.943 54.859C196.943 57.055 197.532 58.8037 198.712 60.105C199.891 61.3657 201.375 61.996 203.165 61.996C204.913 61.996 206.377 61.3657 207.557 60.105C208.777 58.8443 209.387 57.0957 209.387 54.859ZM249.933 37.474C253.877 37.474 257.009 38.7957 259.327 41.439C261.645 44.0417 262.804 47.5797 262.804 52.053V72H250.848V53.639C250.848 51.687 250.339 50.162 249.323 49.064C248.306 47.9253 246.944 47.356 245.236 47.356C243.446 47.356 242.043 47.9253 241.027 49.064C240.01 50.162 239.502 51.687 239.502 53.639V72H227.546V37.779H239.502V42.659C240.559 41.1137 241.982 39.8733 243.772 38.938C245.561 37.962 247.615 37.474 249.933 37.474ZM291.141 37.474C295.086 37.474 298.217 38.7957 300.535 41.439C302.853 44.0417 304.012 47.5797 304.012 52.053V72H292.056V53.639C292.056 51.687 291.548 50.162 290.531 49.064C289.514 47.9253 288.152 47.356 286.444 47.356C284.655 47.356 283.252 47.9253 282.235 49.064C281.218 50.162 280.71 51.687 280.71 53.639V72H268.754V37.779H280.71V42.659C281.767 41.1137 283.191 39.8733 284.98 38.938C286.769 37.962 288.823 37.474 291.141 37.474ZM308.01 54.859C308.01 51.321 308.641 48.2303 309.901 45.587C311.203 42.9437 312.951 40.9103 315.147 39.487C317.384 38.0637 319.865 37.352 322.589 37.352C324.948 37.352 326.981 37.8197 328.689 38.755C330.397 39.6903 331.719 40.951 332.654 42.537V37.779H344.61V72H332.654V67.242C331.719 68.828 330.377 70.0887 328.628 71.024C326.92 71.9593 324.907 72.427 322.589 72.427C319.865 72.427 317.384 71.7153 315.147 70.292C312.951 68.8687 311.203 66.8353 309.901 64.192C308.641 61.508 308.01 58.397 308.01 54.859ZM332.654 54.859C332.654 52.663 332.044 50.9347 330.824 49.674C329.645 48.4133 328.181 47.783 326.432 47.783C324.643 47.783 323.159 48.4133 321.979 49.674C320.8 50.894 320.21 52.6223 320.21 54.859C320.21 57.055 320.8 58.8037 321.979 60.105C323.159 61.3657 324.643 61.996 326.432 61.996C328.181 61.996 329.645 61.3657 330.824 60.105C332.044 58.8443 332.654 57.0957 332.654 54.859Z" fill="#231F20"/>
<path d="M8.364 91.84L5.244 100.072H3.3L0.168 91.84H2.1L4.284 98.272L6.456 91.84H8.364ZM22.163 98.668V100H16.763V91.84H21.923V93.172H18.659V95.02H21.443V96.352H18.659V98.668H22.163ZM37.7831 96.016V99.568C37.4071 99.744 36.9671 99.888 36.4631 100C35.9591 100.104 35.4351 100.156 34.8911 100.156C33.9231 100.156 33.1031 99.964 32.4311 99.58C31.7671 99.188 31.2671 98.672 30.9311 98.032C30.6031 97.384 30.4391 96.676 30.4391 95.908C30.4391 95.148 30.6111 94.448 30.9551 93.808C31.3071 93.168 31.8271 92.656 32.5151 92.272C33.2031 91.888 34.0351 91.696 35.0111 91.696C35.4991 91.696 35.9591 91.756 36.3911 91.876C36.8231 91.988 37.1991 92.148 37.5191 92.356L37.0751 93.676C36.4751 93.276 35.7871 93.076 35.0111 93.076C34.4511 93.076 33.9671 93.204 33.5591 93.46C33.1591 93.708 32.8551 94.048 32.6471 94.48C32.4391 94.904 32.3351 95.384 32.3351 95.92C32.3351 96.76 32.5551 97.448 32.9951 97.984C33.4431 98.512 34.0751 98.776 34.8911 98.776C35.2191 98.776 35.5711 98.748 35.9471 98.692V96.016H37.7831ZM46.6261 91.84H48.5221V100H46.6261V91.84ZM63.6377 93.196H61.2737V100H59.3777V93.196H57.0377V91.84H63.6377V93.196ZM76.5818 97.948H73.7018L73.0058 100H71.0978L74.2418 91.732H76.0538L79.2098 100H77.2778L76.5818 97.948ZM76.1378 96.64L75.1418 93.688L74.1458 96.64H76.1378ZM92.1142 95.68C92.7302 95.8 93.1982 96.048 93.5182 96.424C93.8462 96.792 94.0102 97.244 94.0102 97.78C94.0102 98.5 93.7262 99.052 93.1582 99.436C92.5902 99.812 91.7582 100 90.6622 100H87.5302V91.84H90.6622C91.6542 91.84 92.3982 92.004 92.8942 92.332C93.3982 92.66 93.6502 93.168 93.6502 93.856C93.6502 94.296 93.5182 94.68 93.2542 95.008C92.9902 95.328 92.6102 95.552 92.1142 95.68ZM89.4262 93.172V95.02H90.6622C91.3902 95.02 91.7542 94.708 91.7542 94.084C91.7542 93.756 91.6622 93.524 91.4782 93.388C91.2942 93.244 91.0222 93.172 90.6622 93.172H89.4262ZM90.6622 98.668C91.1262 98.668 91.4822 98.572 91.7302 98.38C91.9862 98.188 92.1142 97.9 92.1142 97.516C92.1142 96.74 91.6302 96.352 90.6622 96.352H89.4262V98.668H90.6622ZM108.131 98.668V100H102.731V91.84H104.627V98.668H108.131ZM121.938 98.668V100H116.538V91.84H121.698V93.172H118.434V95.02H121.218V96.352H118.434V98.668H121.938ZM141.098 90.316H142.994V102.832H141.098V90.316ZM164.578 93.196V95.428H167.362V96.772H164.578V100H162.682V91.84H167.842V93.196H164.578ZM179.469 96.856H178.221V100H176.325V91.84H179.457C180.569 91.84 181.385 92.04 181.905 92.44C182.425 92.832 182.685 93.432 182.685 94.24C182.685 95.376 182.229 96.12 181.317 96.472L183.693 100H181.509L179.469 96.856ZM178.221 95.524H179.457C179.921 95.524 180.257 95.428 180.465 95.236C180.681 95.044 180.789 94.748 180.789 94.348C180.789 93.948 180.681 93.652 180.465 93.46C180.257 93.268 179.921 93.172 179.457 93.172H178.221V95.524ZM195.711 100.156C194.511 100.156 193.591 99.856 192.951 99.256C192.319 98.656 192.003 97.832 192.003 96.784V91.84H193.899V96.772C193.899 98.108 194.503 98.776 195.711 98.776C196.911 98.776 197.511 98.108 197.511 96.772V91.84H199.407V96.76C199.407 97.816 199.091 98.648 198.459 99.256C197.827 99.856 196.911 100.156 195.711 100.156ZM208.66 91.84H210.556V100H208.66V91.84ZM225.672 93.196H223.308V100H221.412V93.196H219.072V91.84H225.672V93.196ZM236.348 100.156C235.804 100.156 235.288 100.104 234.8 100C234.312 99.888 233.888 99.736 233.528 99.544L233.924 98.236C234.348 98.42 234.748 98.556 235.124 98.644C235.508 98.732 235.908 98.776 236.324 98.776C236.78 98.776 237.164 98.692 237.476 98.524C237.788 98.348 237.944 98.1 237.944 97.78C237.944 97.572 237.868 97.392 237.716 97.24C237.572 97.088 237.388 96.964 237.164 96.868C236.948 96.764 236.644 96.64 236.252 96.496C235.732 96.304 235.308 96.124 234.98 95.956C234.652 95.788 234.372 95.56 234.14 95.272C233.908 94.976 233.792 94.608 233.792 94.168C233.792 93.384 234.084 92.776 234.668 92.344C235.26 91.912 236.052 91.696 237.044 91.696C237.484 91.696 237.912 91.748 238.328 91.852C238.752 91.956 239.132 92.104 239.468 92.296L239.06 93.592C238.356 93.248 237.704 93.076 237.104 93.076C236.664 93.076 236.308 93.16 236.036 93.328C235.772 93.496 235.64 93.736 235.64 94.048C235.64 94.312 235.768 94.524 236.024 94.684C236.28 94.844 236.688 95.028 237.248 95.236C237.784 95.436 238.22 95.624 238.556 95.8C238.9 95.968 239.192 96.204 239.432 96.508C239.68 96.812 239.804 97.196 239.804 97.66C239.804 98.444 239.504 99.056 238.904 99.496C238.304 99.936 237.452 100.156 236.348 100.156ZM266.185 99.94C265.889 100.044 265.525 100.096 265.093 100.096C264.717 100.096 264.369 100.04 264.049 99.928C263.737 99.808 263.409 99.608 263.065 99.328C262.305 99.88 261.505 100.156 260.665 100.156C260.033 100.156 259.489 100.06 259.033 99.868C258.585 99.668 258.245 99.396 258.013 99.052C257.781 98.7 257.665 98.304 257.665 97.864C257.665 96.768 258.253 95.94 259.429 95.38C259.165 95.084 258.977 94.824 258.865 94.6C258.753 94.368 258.697 94.112 258.697 93.832C258.697 93.44 258.785 93.084 258.961 92.764C259.145 92.436 259.421 92.176 259.789 91.984C260.165 91.792 260.621 91.696 261.157 91.696C261.669 91.696 262.105 91.784 262.465 91.96C262.833 92.128 263.109 92.356 263.293 92.644C263.477 92.932 263.569 93.244 263.569 93.58C263.569 94.052 263.433 94.464 263.161 94.816C262.889 95.168 262.461 95.492 261.877 95.788L263.137 97.18C263.497 96.556 263.797 95.788 264.037 94.876L265.789 95.056C265.653 95.632 265.449 96.2 265.177 96.76C264.905 97.312 264.577 97.816 264.193 98.272C264.561 98.568 264.933 98.716 265.309 98.716C265.501 98.716 265.689 98.696 265.873 98.656L266.185 99.94ZM261.133 93.052C260.925 93.052 260.765 93.12 260.653 93.256C260.549 93.384 260.497 93.544 260.497 93.736C260.497 93.928 260.533 94.1 260.605 94.252C260.677 94.404 260.797 94.58 260.965 94.78C261.253 94.596 261.457 94.42 261.577 94.252C261.705 94.084 261.769 93.892 261.769 93.676C261.769 93.508 261.713 93.364 261.601 93.244C261.489 93.116 261.333 93.052 261.133 93.052ZM259.561 97.696C259.561 98 259.673 98.26 259.897 98.476C260.129 98.692 260.449 98.8 260.857 98.8C261.297 98.8 261.713 98.656 262.105 98.368L260.365 96.436C259.829 96.82 259.561 97.24 259.561 97.696ZM293.249 91.84V100H291.401V97.672L291.521 94.768L289.637 97.852H288.221L286.301 94.72L286.457 97.672V100H284.609V91.84H286.385L288.929 95.944L291.473 91.84H293.249ZM306.379 100.156C305.467 100.156 304.683 99.968 304.027 99.592C303.379 99.208 302.887 98.696 302.551 98.056C302.223 97.416 302.059 96.704 302.059 95.92C302.059 95.144 302.223 94.436 302.551 93.796C302.887 93.156 303.379 92.648 304.027 92.272C304.683 91.888 305.467 91.696 306.379 91.696C307.291 91.696 308.071 91.888 308.719 92.272C309.375 92.648 309.867 93.156 310.195 93.796C310.531 94.436 310.699 95.144 310.699 95.92C310.699 96.704 310.531 97.42 310.195 98.068C309.867 98.708 309.379 99.216 308.731 99.592C308.083 99.968 307.299 100.156 306.379 100.156ZM306.379 98.776C306.883 98.776 307.319 98.652 307.687 98.404C308.055 98.156 308.331 97.816 308.515 97.384C308.707 96.952 308.803 96.464 308.803 95.92C308.803 95.376 308.707 94.892 308.515 94.468C308.331 94.036 308.055 93.696 307.687 93.448C307.319 93.2 306.883 93.076 306.379 93.076C305.875 93.076 305.439 93.2 305.071 93.448C304.703 93.696 304.423 94.036 304.231 94.468C304.047 94.892 303.955 95.376 303.955 95.92C303.955 96.464 304.047 96.952 304.231 97.384C304.423 97.816 304.703 98.156 305.071 98.404C305.439 98.652 305.875 98.776 306.379 98.776ZM322.632 96.856H321.384V100H319.488V91.84H322.62C323.732 91.84 324.548 92.04 325.068 92.44C325.588 92.832 325.848 93.432 325.848 94.24C325.848 95.376 325.392 96.12 324.48 96.472L326.856 100H324.672L322.632 96.856ZM321.384 95.524H322.62C323.084 95.524 323.42 95.428 323.628 95.236C323.844 95.044 323.952 94.748 323.952 94.348C323.952 93.948 323.844 93.652 323.628 93.46C323.42 93.268 323.084 93.172 322.62 93.172H321.384V95.524ZM340.687 98.668V100H335.287V91.84H340.447V93.172H337.183V95.02H339.967V96.352H337.183V98.668H340.687Z" fill="black"/>
</svg>
