<svg id="Layer_1" data-name="Layer 1" xmlns="http://www.w3.org/2000/svg" viewBox="0 0 476 101"><defs><style>.cls-1{fill:#ff7248;}.cls-2{fill:#fff;}</style></defs><path class="cls-1" d="M363.26,67.15a5.23,5.23,0,0,1-.37,3.15,3.85,3.85,0,0,1-1.68,1.64,5.51,5.51,0,0,1-2.41.54,11.53,11.53,0,0,1-2.54-.24,9.58,9.58,0,0,1-1.11-2.4c-.33-1-.62-1.94-.89-3s-.51-2-.72-3-.38-1.88-.53-2.65a6.28,6.28,0,0,0,.52-1.82c.09-.69.17-1.4.22-2.11s.1-1.44.16-2.18a19.36,19.36,0,0,1,.25-2.11,32.09,32.09,0,0,1,1.6-5.31,37.2,37.2,0,0,0,1.66-5.24,1.81,1.81,0,0,0-.05-1.15,1.48,1.48,0,0,1-.06-1,.5.5,0,0,1,.42-.35.56.56,0,0,0,.42-.42,2.79,2.79,0,0,0,.15-1.21,1.83,1.83,0,0,1,.28-1.13c.24-.35.54-.86.91-1.54a4,4,0,0,0,.46-2.17,8.11,8.11,0,0,0,1.18-.89,12.21,12.21,0,0,1,1.14-.93,8.19,8.19,0,0,1,1.31-.72,4,4,0,0,1,1.73-.26,3.44,3.44,0,0,1,.64,1.5l.27,1.63a6.43,6.43,0,0,0,.44,1.53,2.37,2.37,0,0,0,1.1,1.16l-.06,1.34c0,.54,0,1.06,0,1.58a5.62,5.62,0,0,0,.24,1.42,1.33,1.33,0,0,0,.74.87c-.89,2.12-1.73,4.21-2.51,6.29a57.52,57.52,0,0,0-2,6.27,40.83,40.83,0,0,0-1.11,6.37A28.08,28.08,0,0,0,363.26,67.15Z"/><path class="cls-1" d="M393.74,60a5.26,5.26,0,0,1-.51,1.76,9.58,9.58,0,0,1-1,1.58A15.11,15.11,0,0,1,391,64.77,17.12,17.12,0,0,1,389.73,66a2.42,2.42,0,0,1,0,1.31,3.07,3.07,0,0,0-.15,1.3A5.93,5.93,0,0,1,386.35,72a3.69,3.69,0,0,1-3.84-.52,4.76,4.76,0,0,1-1.19-1.43A2.13,2.13,0,0,0,380,69a4.36,4.36,0,0,0-.11-2.29c-.23-.77-.51-1.19-.82-1.24a27.25,27.25,0,0,0-.48-3.05c-.22-1.08-.42-2.18-.6-3.28s-.33-2.19-.44-3.25a15.3,15.3,0,0,1-.05-2.93,1.9,1.9,0,0,0-.18-1.21,4.05,4.05,0,0,1-.38-1.3,14.14,14.14,0,0,1,0-3.26c.12-1.14.2-2.22.24-3.25a31.59,31.59,0,0,0,0-3.2c-.06-1.14-.12-2.24-.16-3.3s-.05-2,0-2.89a5.18,5.18,0,0,1,.42-2,3.55,3.55,0,0,1,1.16-1.27,9.29,9.29,0,0,0,1.36-1.05,3.28,3.28,0,0,1,2.3,1.31,2.41,2.41,0,0,1,.59,2,6.78,6.78,0,0,1,2.15,2.34A13.07,13.07,0,0,1,386.11,39a21.06,21.06,0,0,1,.55,3.66c.08,1.28.14,2.53.18,3.77s.08,2.41.12,3.53a12.84,12.84,0,0,0,.42,2.91q2.63-3.45,4.43-6.17t3.64-5.19q1.85-2.48,4.11-5a69.43,69.43,0,0,1,5.81-5.68,3.6,3.6,0,0,1,1.1.32l.76.37a4.88,4.88,0,0,0,.79.26,3.52,3.52,0,0,0,1.28,0q.24.69.36,1c.08.21.15.41.21.62l.24.78c.1.32.27.77.51,1.37a.56.56,0,0,1,.12.54,5.44,5.44,0,0,0-.13.63,3.63,3.63,0,0,0-.05.44c0,.09.1.09.33,0a5.15,5.15,0,0,1-.77,1.68,3,3,0,0,0-.52,1.83q-1.62,2-3.56,4T402.17,49q-1.95,2.2-3.73,4.65a35,35,0,0,0-3.1,5.15.59.59,0,0,0-.51.18,2.29,2.29,0,0,0-.32.43,4.63,4.63,0,0,1-.32.42A.54.54,0,0,1,393.74,60Z"/><path class="cls-1" d="M429.83,84.61a30.14,30.14,0,0,1,4.72.2,5.35,5.35,0,0,1,2.07.66.86.86,0,0,1,.47.9,3.56,3.56,0,0,0-.09,1,86.39,86.39,0,0,1-9.14,1.45q-5.53.63-12.19,1.13c-4.44.34-1.36.25-6.13.51s-17.06.89-21.5,1.11l-12.49.62q-5.83.3-9.61.6-11.49.87-17.93,1.48c-4.3.41-7.28.75-9,1a61.48,61.48,0,0,1-6.62-.13,23.25,23.25,0,0,1-4-.68,15.36,15.36,0,0,1-2.72-1c-.77-.39-1.68-.79-2.74-1.2.55-.34.62-.79.22-1.36a4.09,4.09,0,0,0-2.6-1.21,4.28,4.28,0,0,0,2.36-.79q.81-.65.09-.9c2.33-.27,4.83-.49,7.5-.64s5.3-.31,7.92-.48,5.09-.36,7.43-.55,4.39-.45,6.15-.77Q363,85,374.8,84.39l22-1.22c2.44.07,5.33,0,8.65-.08s6.6-.22,9.84-.26,6.16,0,8.8.26A12.26,12.26,0,0,1,429.83,84.61Z"/><path class="cls-1" d="M469.09,55.65A5.23,5.23,0,0,0,466,54.13a1.63,1.63,0,0,0-1,.24,8.75,8.75,0,0,1-4.11,1.38,2.21,2.21,0,0,0-.93.34l-.14.08c-1.38.55-2.76,1.1-4.16,1.64h-.12l-.55.12a7.89,7.89,0,0,0-1.22.32l-3.48,1.37-1.45.58h-.11l-.16,0c-.48.12-1,.22-1.45.32a20.48,20.48,0,0,0-3.52,1A24.81,24.81,0,0,1,437.38,63a18.11,18.11,0,0,1-3.25.1L432.5,63l-1.6-.09a2.71,2.71,0,0,1-.78-.24c-.17-.07-.34-.14-.5-.19s-.6-.2-.91-.3a15.64,15.64,0,0,1-2.16-.82,2.51,2.51,0,0,1-.4-.46,5.61,5.61,0,0,0-.63-.73l-.44-.4a11.24,11.24,0,0,1-1-1,16.29,16.29,0,0,0,2.94-.38,13.27,13.27,0,0,1,2.87-.34l.57,0a1.61,1.61,0,0,0,.75-.16s3.11-.34,3.88-.53c.28-.07,3.16-1,5-1.45a11.53,11.53,0,0,1,1.49-.22,13.39,13.39,0,0,0,1.31-.55,46.36,46.36,0,0,0,7.94-4A31,31,0,0,0,454.5,48c4-3.57,4.93-8.39,4.52-9.94a12.41,12.41,0,0,0-.9-2.32,2.75,2.75,0,0,0-1.39-1.5,4.26,4.26,0,0,1-.79-.56,14.27,14.27,0,0,0-6.59-3,11.81,11.81,0,0,0-1.91-.2c-.35,0-.69,0-1-.07l-1.48-.19c-.89-.12-1.78-.24-2.68-.31h-.16a5.21,5.21,0,0,0-2.07.34c-.82.31-1.63.67-2.43,1l-1.46.64c-.54.23-1.09.44-1.64.65a27.16,27.16,0,0,0-3.68,1.63l-.42.25a3.18,3.18,0,0,1-1.45.59,1.48,1.48,0,0,0-.93.44,10.92,10.92,0,0,1-1,.4,1.87,1.87,0,0,0-.84.34c-.36.26-.7.55-1,.83l-.67.55a41.79,41.79,0,0,0-6.06,6.29l-.31.36a19.58,19.58,0,0,0-1.14,1.61c-.67,1-1.61,3.17-2.54,3.67a3.25,3.25,0,0,1-1.14.26,4.69,4.69,0,0,0-1.92.5l-.51.27a4.22,4.22,0,0,0-2,1.6c-.51.93-1.07,2.95-.59,3.79l0,.06L410,59.67l.63,0,.36,0a2.74,2.74,0,0,1,.48.06c.91.22,1.44.8,1.84,2a12,12,0,0,0,1.46,2.64l.11.15a17,17,0,0,0,1.22,1.55l.54.65.57.56.74-.27a1,1,0,0,1,.23.3,7.89,7.89,0,0,0,2.14,2.31,4.78,4.78,0,0,0,1.48.62,2.92,2.92,0,0,1,.85.34A7,7,0,0,0,426.53,72a9.38,9.38,0,0,1,1.61.31,21.69,21.69,0,0,0,4.71.71l.85,0A19.63,19.63,0,0,0,437,73a17.79,17.79,0,0,0,2.59-.61l1.19-.32,2.66-.65q2-.47,3.93-1c.42-.11.84-.25,1.25-.39s.63-.22,1-.31.82-.18,1.23-.26l.7-.14a17.82,17.82,0,0,0,2.34-.92,3.8,3.8,0,0,1,.47-.18,4,4,0,0,0,1.59-.91A5.31,5.31,0,0,1,459,66.06l.64-.12a7.78,7.78,0,0,0,3.09-1,11.91,11.91,0,0,1,2.67-1.26l.69-.27a6.49,6.49,0,0,0,3.64-3.82A3.77,3.77,0,0,0,469.09,55.65ZM426.27,48a17.51,17.51,0,0,1,2.3-2l.24-.2a25.27,25.27,0,0,1,9-5.32l.41-.12a22.49,22.49,0,0,1,7.12-1.14l.51,0c.47,0,1.18.32,1.38.34a1.58,1.58,0,0,1,.91,1.67,7,7,0,0,1-1.9,2.35c-.22.2-.34.42-.6.63-.1.08-.6.23-.71.31a16.47,16.47,0,0,1-4,2.55c-.38.17-1,.33-1.45.49A32.76,32.76,0,0,1,434,49.14c-.24,0-.33.18-.58.22a5.72,5.72,0,0,0-.91,0c-.58.1-1.44.23-2.37.35-.32,0-.61,0-.94,0a30.19,30.19,0,0,1-4.73.39C423.83,50,426.27,48,426.27,48Z"/><path class="cls-1" d="M328.41,73.45c-1.4.38-2.91.76-4.55,1.14a18.52,18.52,0,0,1-4.89.46A8.62,8.62,0,0,1,313.23,73a4.29,4.29,0,0,0-.62-1.14,4.5,4.5,0,0,1-.38-.64,2.59,2.59,0,0,1-.22-.93,8.09,8.09,0,0,1-1.3-2.45,12.45,12.45,0,0,1-.45-2.86,14.56,14.56,0,0,1-.09-2.88,15,15,0,0,1,.6-2.78,2.26,2.26,0,0,0,.21-.58c0-.2.08-.42.14-.66.22-.78.46-1.53.72-2.26a6.23,6.23,0,0,1,1-1.88,1.89,1.89,0,0,1,.06-1.47,10.31,10.31,0,0,1,.72-1.45c.76-1.83,1.41-3.39,1.93-4.67s1.05-2.55,1.59-3.81q1.39-3.27,2.63-6.46t2.28-6.92c.4-.22.71-.38.91-.47s.54-.15.74-.19a28.48,28.48,0,0,0,3,1.41,9.07,9.07,0,0,0,2.92.75,3.67,3.67,0,0,1,.72.58,3.3,3.3,0,0,0,.28.35,15.08,15.08,0,0,1,1.32,2,4,4,0,0,1,.26,2.63q-.48.64-.69.63a20.08,20.08,0,0,1-.88,2.47c-.3.68-.61,1.36-.93,2s-1.12,1.62-1.44,2.34a14.16,14.16,0,0,0-.85,2.7A2.83,2.83,0,0,0,327,47c-.08.2-.17.41-.28.66l-.36.76a1.89,1.89,0,0,1-.59.67,12.2,12.2,0,0,1-.82,3.07c-.36.77-.72,1.54-1.1,2.31-.64,1.4-1.23,2.81-1.76,4.21s-1.82,4.78-1.05,4.83a4.85,4.85,0,0,1,1.1-.29l.63,0a6.82,6.82,0,0,1,1.54.29,12.14,12.14,0,0,1,4.88-1.2c1.75-.08,3.48-.1,5.2-.08l2.07.08a12,12,0,0,0,1.92-.06,4.61,4.61,0,0,0,.83.44,2.92,2.92,0,0,0,.55.06,4.21,4.21,0,0,1,.88.11,6.71,6.71,0,0,0,1.65,1.25,18,18,0,0,0,1.66.73q.8.33,1.56.69a6.38,6.38,0,0,1,1.47,1l.39,3.19c.32.46.46.76.4.9a1.25,1.25,0,0,1-.33.88l.11.81a4.38,4.38,0,0,0-1.53.45,6.8,6.8,0,0,0-.8.64,7.21,7.21,0,0,1-.85,0h-.48a10.28,10.28,0,0,0-2.52.26,12.85,12.85,0,0,0-4.09-.84c-.54,0-1.11,0-1.7,0l-1.78.07a17.67,17.67,0,0,1-1.81.15c-.62,0-1.24,0-1.88,0Z"/><path class="cls-2" d="M82.88,25.11a5,5,0,0,0-5,5V84.71a5,5,0,0,0,10,0V30.1A5,5,0,0,0,82.88,25.11Z"/><path class="cls-2" d="M137.42,24.81a5,5,0,0,0,0,10,8,8,0,0,1,8,8V84.71a5,5,0,0,0,10,0V42.82A18,18,0,0,0,137.42,24.81Z"/><path class="cls-2" d="M189.2,34.8a5,5,0,0,0,0-10,18,18,0,0,0-18,18V72a18,18,0,0,0,18,18,5,5,0,0,0,0-10,8,8,0,0,1-8-8V42.82A8,8,0,0,1,189.2,34.8Z"/><path class="cls-2" d="M269.68,24.81a5,5,0,0,0,0,10,8,8,0,0,1,8,8v9.23H246V42.82a8,8,0,0,1,8-8,5,5,0,1,0,0-10,18,18,0,0,0-18,18V72a18,18,0,0,0,18,18,5,5,0,1,0,0-10,8,8,0,0,1-8-8V61.53h36.7a5,5,0,0,0,5-5V42.82A18,18,0,0,0,269.68,24.81Z"/><path class="cls-2" d="M217,67a5,5,0,0,0-5,5,8,8,0,0,1-8,8,5,5,0,0,0,0,10,18,18,0,0,0,18-18A5,5,0,0,0,217,67Z"/><path class="cls-2" d="M204,24.81a5,5,0,0,0,0,10,8,8,0,0,1,8,8,5,5,0,0,0,10,0A18,18,0,0,0,204,24.81Z"/><path class="cls-2" d="M122.3,24.81a18,18,0,0,0-18,18V84.71a5,5,0,0,0,10,0V42.82a8,8,0,0,1,8-8,5,5,0,0,0,0-10Z"/><circle class="cls-2" cx="82.88" cy="9.78" r="6.87"/><path class="cls-2" d="M19.41,28.13a4.9,4.9,0,1,0-9,3.74L33,86.67a4.9,4.9,0,0,0,4.53,3,4.74,4.74,0,0,0,1.87-.38,4.89,4.89,0,0,0,2.66-6.39Z"/><path class="cls-2" d="M63.32,25.51a4.89,4.89,0,0,0-6.44,2.54L41.08,64.49a4.89,4.89,0,0,0,2.54,6.44,5,5,0,0,0,2,.4,4.89,4.89,0,0,0,4.49-3L65.87,32A4.9,4.9,0,0,0,63.32,25.51Z"/><path class="cls-2" d="M282.19,67.74a4.9,4.9,0,0,0-4.9,4.9c0,6.48-4.83,7.45-7.7,7.45a4.9,4.9,0,1,0,0,9.79,17.64,17.64,0,0,0,12.47-4.6,17,17,0,0,0,5-12.64A4.9,4.9,0,0,0,282.19,67.74Z"/></svg>